<?xml version="1.0" encoding="UTF-8" standalone="no"?>
<!DOCTYPE svg PUBLIC "-//W3C//DTD SVG 1.1//EN"
 "http://www.w3.org/Graphics/SVG/1.1/DTD/svg11.dtd">
<!-- Generated by graphviz version 12.2.1 (0)
 -->
<!-- Title: G Pages: 1 -->
<svg width="376pt" height="65pt"
 viewBox="0.00 0.00 375.95 64.80" xmlns="http://www.w3.org/2000/svg" xmlns:xlink="http://www.w3.org/1999/xlink">
<g id="graph0" class="graph" transform="scale(1 1) rotate(0) translate(4 60.8)">
<title>G</title>
<polygon fill="#4a4a4a" stroke="none" points="-4,4 -4,-60.8 371.95,-60.8 371.95,4 -4,4"/>
<!-- n_0 -->
<g id="node1" class="node">
<title>n_0</title>
<ellipse fill="white" stroke="white" cx="276.15" cy="-31.05" rx="1.8" ry="1.8"/>
<text text-anchor="middle" x="269.85" y="-15.95" font-family="Times,serif" font-size="14.00" fill="white">0</text>
</g>
<!-- targets -->
<g id="node6" class="node">
<title>targets</title>
</g>
<!-- n_0&#45;&gt;targets -->
<g id="edge3" class="edge">
<title>n_0&#45;&gt;targets:p_0</title>
<path fill="none" stroke="white" stroke-dasharray="5,2" d="M278.29,-31.07C282.82,-31.15 299.89,-31.43 313.95,-31.43"/>
</g>
<!-- n_1 -->
<g id="node2" class="node">
<title>n_1</title>
<ellipse fill="white" stroke="white" cx="91.8" cy="-43.05" rx="1.8" ry="1.8"/>
<text text-anchor="middle" x="85.5" y="-27.95" font-family="Times,serif" font-size="14.00" fill="white">1</text>
</g>
<!-- e_0 -->
<g id="node4" class="node">
<title>e_0</title>
<path fill="none" stroke="white" d="M141.6,-5.8C141.6,-5.8 226.35,-5.8 226.35,-5.8 232.35,-5.8 238.35,-11.8 238.35,-17.8 238.35,-17.8 238.35,-44.3 238.35,-44.3 238.35,-50.3 232.35,-56.3 226.35,-56.3 226.35,-56.3 141.6,-56.3 141.6,-56.3 135.6,-56.3 129.6,-50.3 129.6,-44.3 129.6,-44.3 129.6,-17.8 129.6,-17.8 129.6,-11.8 135.6,-5.8 141.6,-5.8"/>
<text text-anchor="middle" x="139.85" y="-39" font-family="Times,serif" font-size="14.00" fill="white"> </text>
<polyline fill="none" stroke="white" points="129.6,-31.05 150.1,-31.05"/>
<text text-anchor="middle" x="139.85" y="-13.75" font-family="Times,serif" font-size="14.00" fill="white"> </text>
<polyline fill="none" stroke="white" points="150.1,-5.8 150.1,-56.3"/>
<text text-anchor="middle" x="183.97" y="-26.37" font-family="Times,serif" font-size="14.00" fill="white">And (0)</text>
<polyline fill="none" stroke="white" points="217.85,-5.8 217.85,-56.3"/>
<text text-anchor="middle" x="228.1" y="-26.5" font-family="Times,serif" font-size="14.00" fill="white"> </text>
</g>
<!-- n_1&#45;&gt;e_0 -->
<g id="edge4" class="edge">
<title>n_1&#45;&gt;e_0:s_0</title>
<path fill="none" stroke="white" d="M93.94,-43.08C98.47,-43.21 115.54,-43.67 129.6,-43.67"/>
</g>
<!-- n_2 -->
<g id="node3" class="node">
<title>n_2</title>
<ellipse fill="white" stroke="white" cx="91.8" cy="-19.05" rx="1.8" ry="1.8"/>
<text text-anchor="middle" x="85.5" y="-3.95" font-family="Times,serif" font-size="14.00" fill="white">2</text>
</g>
<!-- n_2&#45;&gt;e_0 -->
<g id="edge5" class="edge">
<title>n_2&#45;&gt;e_0:s_1</title>
<path fill="none" stroke="white" d="M93.94,-19.02C98.47,-18.89 115.54,-18.43 129.6,-18.43"/>
</g>
<!-- e_0&#45;&gt;n_0 -->
<g id="edge6" class="edge">
<title>e_0:t_0&#45;&gt;n_0</title>
<path fill="none" stroke="white" d="M238.35,-31.18C252.41,-31.18 269.48,-31.08 274.01,-31.06"/>
</g>
<!-- sources -->
<g id="node5" class="node">
<title>sources</title>
</g>
<!-- sources&#45;&gt;n_1 -->
<g id="edge1" class="edge">
<title>sources:p_0&#45;&gt;n_1</title>
<path fill="none" stroke="white" stroke-dasharray="5,2" d="M54,-43.67C68.06,-43.67 85.13,-43.21 89.66,-43.08"/>
</g>
<!-- sources&#45;&gt;n_2 -->
<g id="edge2" class="edge">
<title>sources:p_1&#45;&gt;n_2</title>
<path fill="none" stroke="white" stroke-dasharray="5,2" d="M54,-18.43C68.06,-18.43 85.13,-18.89 89.66,-19.02"/>
</g>
</g>
</svg>
