<?xml version="1.0" encoding="UTF-8" standalone="no"?>
<!DOCTYPE svg PUBLIC "-//W3C//DTD SVG 1.1//EN"
 "http://www.w3.org/Graphics/SVG/1.1/DTD/svg11.dtd">
<!-- Generated by graphviz version 12.2.1 (0)
 -->
<!-- Title: G Pages: 1 -->
<svg width="569pt" height="65pt"
 viewBox="0.00 0.00 568.55 64.80" xmlns="http://www.w3.org/2000/svg" xmlns:xlink="http://www.w3.org/1999/xlink">
<g id="graph0" class="graph" transform="scale(1 1) rotate(0) translate(4 60.8)">
<title>G</title>
<polygon fill="#4a4a4a" stroke="none" points="-4,4 -4,-60.8 564.55,-60.8 564.55,4 -4,4"/>
<!-- n_0 -->
<g id="node1" class="node">
<title>n_0</title>
<ellipse fill="white" stroke="white" cx="91.8" cy="-31.05" rx="1.8" ry="1.8"/>
<text text-anchor="middle" x="85.5" y="-15.95" font-family="Times,serif" font-size="14.00" fill="white">0</text>
</g>
<!-- e_0 -->
<g id="node5" class="node">
<title>e_0</title>
<path fill="none" stroke="white" d="M141.6,-5.8C141.6,-5.8 234.6,-5.8 234.6,-5.8 240.6,-5.8 246.6,-11.8 246.6,-17.8 246.6,-17.8 246.6,-44.3 246.6,-44.3 246.6,-50.3 240.6,-56.3 234.6,-56.3 234.6,-56.3 141.6,-56.3 141.6,-56.3 135.6,-56.3 129.6,-50.3 129.6,-44.3 129.6,-44.3 129.6,-17.8 129.6,-17.8 129.6,-11.8 135.6,-5.8 141.6,-5.8"/>
<text text-anchor="middle" x="139.85" y="-26.5" font-family="Times,serif" font-size="14.00" fill="white"> </text>
<polyline fill="none" stroke="white" points="150.1,-5.8 150.1,-56.3"/>
<text text-anchor="middle" x="188.1" y="-26.37" font-family="Times,serif" font-size="14.00" fill="white">Copy (0)</text>
<polyline fill="none" stroke="white" points="226.1,-5.8 226.1,-56.3"/>
<text text-anchor="middle" x="236.35" y="-39" font-family="Times,serif" font-size="14.00" fill="white"> </text>
<polyline fill="none" stroke="white" points="226.1,-31.05 246.6,-31.05"/>
<text text-anchor="middle" x="236.35" y="-13.75" font-family="Times,serif" font-size="14.00" fill="white"> </text>
</g>
<!-- n_0&#45;&gt;e_0 -->
<g id="edge3" class="edge">
<title>n_0&#45;&gt;e_0:s_0</title>
<path fill="none" stroke="white" d="M93.94,-31.06C98.47,-31.08 115.54,-31.18 129.6,-31.18"/>
</g>
<!-- n_1 -->
<g id="node2" class="node">
<title>n_1</title>
<ellipse fill="white" stroke="white" cx="284.4" cy="-43.05" rx="1.8" ry="1.8"/>
<text text-anchor="middle" x="278.1" y="-27.95" font-family="Times,serif" font-size="14.00" fill="white">1</text>
</g>
<!-- e_1 -->
<g id="node6" class="node">
<title>e_1</title>
<path fill="none" stroke="white" d="M334.2,-5.8C334.2,-5.8 418.95,-5.8 418.95,-5.8 424.95,-5.8 430.95,-11.8 430.95,-17.8 430.95,-17.8 430.95,-44.3 430.95,-44.3 430.95,-50.3 424.95,-56.3 418.95,-56.3 418.95,-56.3 334.2,-56.3 334.2,-56.3 328.2,-56.3 322.2,-50.3 322.2,-44.3 322.2,-44.3 322.2,-17.8 322.2,-17.8 322.2,-11.8 328.2,-5.8 334.2,-5.8"/>
<text text-anchor="middle" x="332.45" y="-39" font-family="Times,serif" font-size="14.00" fill="white"> </text>
<polyline fill="none" stroke="white" points="322.2,-31.05 342.7,-31.05"/>
<text text-anchor="middle" x="332.45" y="-13.75" font-family="Times,serif" font-size="14.00" fill="white"> </text>
<polyline fill="none" stroke="white" points="342.7,-5.8 342.7,-56.3"/>
<text text-anchor="middle" x="376.57" y="-26.37" font-family="Times,serif" font-size="14.00" fill="white">And (1)</text>
<polyline fill="none" stroke="white" points="410.45,-5.8 410.45,-56.3"/>
<text text-anchor="middle" x="420.7" y="-26.5" font-family="Times,serif" font-size="14.00" fill="white"> </text>
</g>
<!-- n_1&#45;&gt;e_1 -->
<g id="edge6" class="edge">
<title>n_1&#45;&gt;e_1:s_0</title>
<path fill="none" stroke="white" d="M286.54,-43.08C291.07,-43.21 308.14,-43.67 322.2,-43.67"/>
</g>
<!-- n_2 -->
<g id="node3" class="node">
<title>n_2</title>
<ellipse fill="white" stroke="white" cx="284.4" cy="-19.05" rx="1.8" ry="1.8"/>
<text text-anchor="middle" x="278.1" y="-3.95" font-family="Times,serif" font-size="14.00" fill="white">2</text>
</g>
<!-- n_2&#45;&gt;e_1 -->
<g id="edge7" class="edge">
<title>n_2&#45;&gt;e_1:s_1</title>
<path fill="none" stroke="white" d="M286.54,-19.02C291.07,-18.89 308.14,-18.43 322.2,-18.43"/>
</g>
<!-- n_3 -->
<g id="node4" class="node">
<title>n_3</title>
<ellipse fill="white" stroke="white" cx="468.75" cy="-31.05" rx="1.8" ry="1.8"/>
<text text-anchor="middle" x="462.45" y="-15.95" font-family="Times,serif" font-size="14.00" fill="white">3</text>
</g>
<!-- targets -->
<g id="node8" class="node">
<title>targets</title>
</g>
<!-- n_3&#45;&gt;targets -->
<g id="edge2" class="edge">
<title>n_3&#45;&gt;targets:p_0</title>
<path fill="none" stroke="white" stroke-dasharray="5,2" d="M470.89,-31.07C475.42,-31.15 492.49,-31.43 506.55,-31.43"/>
</g>
<!-- e_0&#45;&gt;n_1 -->
<g id="edge4" class="edge">
<title>e_0:t_0&#45;&gt;n_1</title>
<path fill="none" stroke="white" d="M246.6,-43.67C260.66,-43.67 277.73,-43.21 282.26,-43.08"/>
</g>
<!-- e_0&#45;&gt;n_2 -->
<g id="edge5" class="edge">
<title>e_0:t_1&#45;&gt;n_2</title>
<path fill="none" stroke="white" d="M246.6,-18.43C260.66,-18.43 277.73,-18.89 282.26,-19.02"/>
</g>
<!-- e_1&#45;&gt;n_3 -->
<g id="edge8" class="edge">
<title>e_1:t_0&#45;&gt;n_3</title>
<path fill="none" stroke="white" d="M430.95,-31.18C445.01,-31.18 462.08,-31.08 466.61,-31.06"/>
</g>
<!-- sources -->
<g id="node7" class="node">
<title>sources</title>
</g>
<!-- sources&#45;&gt;n_0 -->
<g id="edge1" class="edge">
<title>sources:p_0&#45;&gt;n_0</title>
<path fill="none" stroke="white" stroke-dasharray="5,2" d="M54,-31.43C68.06,-31.43 85.13,-31.15 89.66,-31.07"/>
</g>
</g>
</svg>
