<?xml version="1.0" encoding="UTF-8" standalone="no"?>
<!DOCTYPE svg PUBLIC "-//W3C//DTD SVG 1.1//EN"
 "http://www.w3.org/Graphics/SVG/1.1/DTD/svg11.dtd">
<!-- Generated by graphviz version 12.2.1 (0)
 -->
<!-- Title: G Pages: 1 -->
<svg width="569pt" height="135pt"
 viewBox="0.00 0.00 568.55 134.80" xmlns="http://www.w3.org/2000/svg" xmlns:xlink="http://www.w3.org/1999/xlink">
<g id="graph0" class="graph" transform="scale(1 1) rotate(0) translate(4 130.8)">
<title>G</title>
<polygon fill="#4a4a4a" stroke="none" points="-4,4 -4,-130.8 564.55,-130.8 564.55,4 -4,4"/>
<!-- n_0 -->
<g id="node1" class="node">
<title>n_0</title>
<ellipse fill="white" stroke="white" cx="468.75" cy="-95.05" rx="1.8" ry="1.8"/>
<text text-anchor="middle" x="462.45" y="-79.95" font-family="Times,serif" font-size="14.00" fill="white">0</text>
</g>
<!-- targets -->
<g id="node14" class="node">
<title>targets</title>
</g>
<!-- n_0&#45;&gt;targets -->
<g id="edge3" class="edge">
<title>n_0&#45;&gt;targets:p_0</title>
<path fill="none" stroke="white" stroke-dasharray="5,2" d="M470.89,-94.76C475.38,-93.64 492.35,-89.67 506.55,-89.67"/>
</g>
<!-- n_1 -->
<g id="node2" class="node">
<title>n_1</title>
<ellipse fill="white" stroke="white" cx="284.4" cy="-113.05" rx="1.8" ry="1.8"/>
<text text-anchor="middle" x="278.1" y="-97.95" font-family="Times,serif" font-size="14.00" fill="white">1</text>
</g>
<!-- e_1 -->
<g id="node10" class="node">
<title>e_1</title>
<path fill="none" stroke="white" d="M334.2,-75.8C334.2,-75.8 418.95,-75.8 418.95,-75.8 424.95,-75.8 430.95,-81.8 430.95,-87.8 430.95,-87.8 430.95,-114.3 430.95,-114.3 430.95,-120.3 424.95,-126.3 418.95,-126.3 418.95,-126.3 334.2,-126.3 334.2,-126.3 328.2,-126.3 322.2,-120.3 322.2,-114.3 322.2,-114.3 322.2,-87.8 322.2,-87.8 322.2,-81.8 328.2,-75.8 334.2,-75.8"/>
<text text-anchor="middle" x="332.45" y="-109" font-family="Times,serif" font-size="14.00" fill="white"> </text>
<polyline fill="none" stroke="white" points="322.2,-101.05 342.7,-101.05"/>
<text text-anchor="middle" x="332.45" y="-83.75" font-family="Times,serif" font-size="14.00" fill="white"> </text>
<polyline fill="none" stroke="white" points="342.7,-75.8 342.7,-126.3"/>
<text text-anchor="middle" x="376.57" y="-96.38" font-family="Times,serif" font-size="14.00" fill="white">And (1)</text>
<polyline fill="none" stroke="white" points="410.45,-75.8 410.45,-126.3"/>
<text text-anchor="middle" x="420.7" y="-96.5" font-family="Times,serif" font-size="14.00" fill="white"> </text>
</g>
<!-- n_1&#45;&gt;e_1 -->
<g id="edge8" class="edge">
<title>n_1&#45;&gt;e_1:s_0</title>
<path fill="none" stroke="white" d="M286.54,-113.08C291.07,-113.21 308.14,-113.67 322.2,-113.67"/>
</g>
<!-- n_2 -->
<g id="node3" class="node">
<title>n_2</title>
<ellipse fill="white" stroke="white" cx="284.4" cy="-49.05" rx="1.8" ry="1.8"/>
<text text-anchor="middle" x="278.1" y="-33.95" font-family="Times,serif" font-size="14.00" fill="white">2</text>
</g>
<!-- n_2&#45;&gt;e_1 -->
<g id="edge9" class="edge">
<title>n_2&#45;&gt;e_1:s_1</title>
<path fill="none" stroke="white" d="M285.86,-50.36C288.34,-57.19 300.87,-88.42 322.2,-88.42"/>
</g>
<!-- n_3 -->
<g id="node4" class="node">
<title>n_3</title>
<ellipse fill="white" stroke="white" cx="91.8" cy="-95.05" rx="1.8" ry="1.8"/>
<text text-anchor="middle" x="85.5" y="-79.95" font-family="Times,serif" font-size="14.00" fill="white">3</text>
</g>
<!-- e_2 -->
<g id="node11" class="node">
<title>e_2</title>
<path fill="none" stroke="white" d="M141.6,-75.8C141.6,-75.8 234.6,-75.8 234.6,-75.8 240.6,-75.8 246.6,-81.8 246.6,-87.8 246.6,-87.8 246.6,-114.3 246.6,-114.3 246.6,-120.3 240.6,-126.3 234.6,-126.3 234.6,-126.3 141.6,-126.3 141.6,-126.3 135.6,-126.3 129.6,-120.3 129.6,-114.3 129.6,-114.3 129.6,-87.8 129.6,-87.8 129.6,-81.8 135.6,-75.8 141.6,-75.8"/>
<text text-anchor="middle" x="139.85" y="-96.5" font-family="Times,serif" font-size="14.00" fill="white"> </text>
<polyline fill="none" stroke="white" points="150.1,-75.8 150.1,-126.3"/>
<text text-anchor="middle" x="188.1" y="-96.38" font-family="Times,serif" font-size="14.00" fill="white">Copy (2)</text>
<polyline fill="none" stroke="white" points="226.1,-75.8 226.1,-126.3"/>
<text text-anchor="middle" x="236.35" y="-109" font-family="Times,serif" font-size="14.00" fill="white"> </text>
<polyline fill="none" stroke="white" points="226.1,-101.05 246.6,-101.05"/>
<text text-anchor="middle" x="236.35" y="-83.75" font-family="Times,serif" font-size="14.00" fill="white"> </text>
</g>
<!-- n_3&#45;&gt;e_2 -->
<g id="edge11" class="edge">
<title>n_3&#45;&gt;e_2:s_0</title>
<path fill="none" stroke="white" d="M93.93,-95.38C98.41,-96.65 115.35,-101.17 129.6,-101.17"/>
</g>
<!-- n_4 -->
<g id="node5" class="node">
<title>n_4</title>
<ellipse fill="white" stroke="white" cx="468.75" cy="-54.05" rx="1.8" ry="1.8"/>
<text text-anchor="middle" x="462.45" y="-38.95" font-family="Times,serif" font-size="14.00" fill="white">4</text>
</g>
<!-- n_4&#45;&gt;targets -->
<g id="edge4" class="edge">
<title>n_4&#45;&gt;targets:p_1</title>
<path fill="none" stroke="white" stroke-dasharray="5,2" d="M470.86,-54.61C475.27,-56.76 491.95,-64.42 506.55,-64.42"/>
</g>
<!-- n_5 -->
<g id="node6" class="node">
<title>n_5</title>
<ellipse fill="white" stroke="white" cx="91.8" cy="-42.05" rx="1.8" ry="1.8"/>
<text text-anchor="middle" x="85.5" y="-26.95" font-family="Times,serif" font-size="14.00" fill="white">5</text>
</g>
<!-- e_3 -->
<g id="node12" class="node">
<title>e_3</title>
<path fill="none" stroke="white" d="M141.6,-5.8C141.6,-5.8 234.6,-5.8 234.6,-5.8 240.6,-5.8 246.6,-11.8 246.6,-17.8 246.6,-17.8 246.6,-44.3 246.6,-44.3 246.6,-50.3 240.6,-56.3 234.6,-56.3 234.6,-56.3 141.6,-56.3 141.6,-56.3 135.6,-56.3 129.6,-50.3 129.6,-44.3 129.6,-44.3 129.6,-17.8 129.6,-17.8 129.6,-11.8 135.6,-5.8 141.6,-5.8"/>
<text text-anchor="middle" x="139.85" y="-26.5" font-family="Times,serif" font-size="14.00" fill="white"> </text>
<polyline fill="none" stroke="white" points="150.1,-5.8 150.1,-56.3"/>
<text text-anchor="middle" x="188.1" y="-26.37" font-family="Times,serif" font-size="14.00" fill="white">Copy (3)</text>
<polyline fill="none" stroke="white" points="226.1,-5.8 226.1,-56.3"/>
<text text-anchor="middle" x="236.35" y="-39" font-family="Times,serif" font-size="14.00" fill="white"> </text>
<polyline fill="none" stroke="white" points="226.1,-31.05 246.6,-31.05"/>
<text text-anchor="middle" x="236.35" y="-13.75" font-family="Times,serif" font-size="14.00" fill="white"> </text>
</g>
<!-- n_5&#45;&gt;e_3 -->
<g id="edge14" class="edge">
<title>n_5&#45;&gt;e_3:s_0</title>
<path fill="none" stroke="white" d="M93.91,-41.47C98.3,-39.21 114.94,-31.17 129.6,-31.17"/>
</g>
<!-- n_6 -->
<g id="node7" class="node">
<title>n_6</title>
<ellipse fill="white" stroke="white" cx="284.4" cy="-77.05" rx="1.8" ry="1.8"/>
<text text-anchor="middle" x="278.1" y="-61.95" font-family="Times,serif" font-size="14.00" fill="white">6</text>
</g>
<!-- e_0 -->
<g id="node9" class="node">
<title>e_0</title>
<path fill="none" stroke="white" d="M335.7,-5.8C335.7,-5.8 417.45,-5.8 417.45,-5.8 423.45,-5.8 429.45,-11.8 429.45,-17.8 429.45,-17.8 429.45,-44.3 429.45,-44.3 429.45,-50.3 423.45,-56.3 417.45,-56.3 417.45,-56.3 335.7,-56.3 335.7,-56.3 329.7,-56.3 323.7,-50.3 323.7,-44.3 323.7,-44.3 323.7,-17.8 323.7,-17.8 323.7,-11.8 329.7,-5.8 335.7,-5.8"/>
<text text-anchor="middle" x="333.95" y="-39" font-family="Times,serif" font-size="14.00" fill="white"> </text>
<polyline fill="none" stroke="white" points="323.7,-31.05 344.2,-31.05"/>
<text text-anchor="middle" x="333.95" y="-13.75" font-family="Times,serif" font-size="14.00" fill="white"> </text>
<polyline fill="none" stroke="white" points="344.2,-5.8 344.2,-56.3"/>
<text text-anchor="middle" x="376.57" y="-26.37" font-family="Times,serif" font-size="14.00" fill="white">Xor (0)</text>
<polyline fill="none" stroke="white" points="408.95,-5.8 408.95,-56.3"/>
<text text-anchor="middle" x="419.2" y="-26.5" font-family="Times,serif" font-size="14.00" fill="white"> </text>
</g>
<!-- n_6&#45;&gt;e_0 -->
<g id="edge5" class="edge">
<title>n_6&#45;&gt;e_0:s_0</title>
<path fill="none" stroke="white" d="M286.09,-75.62C289.28,-69.23 303.24,-43.67 322.7,-43.67"/>
</g>
<!-- n_7 -->
<g id="node8" class="node">
<title>n_7</title>
<ellipse fill="white" stroke="white" cx="284.4" cy="-19.05" rx="1.8" ry="1.8"/>
<text text-anchor="middle" x="278.1" y="-3.95" font-family="Times,serif" font-size="14.00" fill="white">7</text>
</g>
<!-- n_7&#45;&gt;e_0 -->
<g id="edge6" class="edge">
<title>n_7&#45;&gt;e_0:s_1</title>
<path fill="none" stroke="white" d="M286.56,-19.02C291.15,-18.89 308.45,-18.42 322.7,-18.42"/>
</g>
<!-- e_0&#45;&gt;n_4 -->
<g id="edge7" class="edge">
<title>e_0:t_0&#45;&gt;n_4</title>
<path fill="none" stroke="white" d="M430.45,-31.17C447.47,-31.17 463.26,-48.69 466.94,-53.07"/>
</g>
<!-- e_1&#45;&gt;n_0 -->
<g id="edge10" class="edge">
<title>e_1:t_0&#45;&gt;n_0</title>
<path fill="none" stroke="white" d="M430.95,-101.17C445.2,-101.17 462.14,-96.65 466.62,-95.38"/>
</g>
<!-- e_2&#45;&gt;n_1 -->
<g id="edge12" class="edge">
<title>e_2:t_0&#45;&gt;n_1</title>
<path fill="none" stroke="white" d="M246.6,-113.67C260.66,-113.67 277.73,-113.21 282.26,-113.08"/>
</g>
<!-- e_2&#45;&gt;n_6 -->
<g id="edge13" class="edge">
<title>e_2:t_1&#45;&gt;n_6</title>
<path fill="none" stroke="white" d="M246.6,-88.42C261.31,-88.42 277.92,-80.02 282.29,-77.66"/>
</g>
<!-- e_3&#45;&gt;n_2 -->
<g id="edge15" class="edge">
<title>e_3:t_0&#45;&gt;n_2</title>
<path fill="none" stroke="white" d="M246.6,-43.67C260.8,-43.67 277.77,-47.64 282.26,-48.76"/>
</g>
<!-- e_3&#45;&gt;n_7 -->
<g id="edge16" class="edge">
<title>e_3:t_1&#45;&gt;n_7</title>
<path fill="none" stroke="white" d="M246.6,-18.42C260.66,-18.42 277.73,-18.89 282.26,-19.02"/>
</g>
<!-- sources -->
<g id="node13" class="node">
<title>sources</title>
</g>
<!-- sources&#45;&gt;n_3 -->
<g id="edge1" class="edge">
<title>sources:p_0&#45;&gt;n_3</title>
<path fill="none" stroke="white" stroke-dasharray="5,2" d="M54,-89.67C68.2,-89.67 85.17,-93.64 89.66,-94.76"/>
</g>
<!-- sources&#45;&gt;n_5 -->
<g id="edge2" class="edge">
<title>sources:p_1&#45;&gt;n_5</title>
<path fill="none" stroke="white" stroke-dasharray="5,2" d="M54,-64.42C70.75,-64.42 86.36,-47.29 90,-43.01"/>
</g>
</g>
</svg>
